<?xml version="1.0" encoding="UTF-8" standalone="no"?>
<svg
   xmlns:dc="http://purl.org/dc/elements/1.1/"
   xmlns:cc="http://creativecommons.org/ns#"
   xmlns:rdf="http://www.w3.org/1999/02/22-rdf-syntax-ns#"
   xmlns:svg="http://www.w3.org/2000/svg"
   xmlns="http://www.w3.org/2000/svg"
   xmlns:sodipodi="http://sodipodi.sourceforge.net/DTD/sodipodi-0.dtd"
   xmlns:inkscape="http://www.inkscape.org/namespaces/inkscape"
   width="525.12445"
   height="352.23438"
   viewBox="0 0 525.12447 352.23438"
   version="1.1"
   id="svg3959"
   sodipodi:docname="b2b.svg"
   inkscape:version="0.92.3 (2405546, 2018-03-11)">
  <metadata
     id="metadata3965">
    <rdf:RDF>
      <cc:Work
         rdf:about="">
        <dc:format>image/svg+xml</dc:format>
        <dc:type
           rdf:resource="http://purl.org/dc/dcmitype/StillImage" />
        <dc:title></dc:title>
      </cc:Work>
    </rdf:RDF>
  </metadata>
  <defs
     id="defs3963" />
  <sodipodi:namedview
     pagecolor="#ffffff"
     bordercolor="#666666"
     borderopacity="1"
     objecttolerance="10"
     gridtolerance="10"
     guidetolerance="10"
     inkscape:pageopacity="0"
     inkscape:pageshadow="2"
     inkscape:window-width="1600"
     inkscape:window-height="837"
     id="namedview3961"
     showgrid="false"
     fit-margin-top="0"
     fit-margin-left="0"
     fit-margin-right="0"
     fit-margin-bottom="0"
     inkscape:zoom="0.45014485"
     inkscape:cx="614.72106"
     inkscape:cy="-42.660956"
     inkscape:window-x="-8"
     inkscape:window-y="-8"
     inkscape:window-maximized="1"
     inkscape:current-layer="svg3959" />
  <style
     type="text/css"
     id="style3883">.st0{fill:#F9A86D;} .st1{opacity:0.6;fill:#43ADA8;enable-background:new ;} .st2{fill:#CCB44D;} .st3{fill:#CED3DA;} .st4{fill:#F7F7F8;} .st5{fill:#929599;} .st6{fill:#363C41;} .st7{fill:#FFDB6C;} .st8{fill:#FFFFFF;} .st9{fill:none;} .st10{fill:#CF824D;} .st11{fill:#E7DAE2;}</style>
  <path
     class="st0"
     d="m 149.19379,68.386987 -15.28112,-15.10144 c -7.37246,7.484485 -14.10821,15.664432 -20.03969,24.341139 -6.43416,9.405281 -11.9635,19.472907 -16.454015,29.937924 -4.557528,10.63063 -8.042687,21.79112 -10.388473,33.11719 -2.245244,10.82932 -3.451653,21.92358 -3.61921,33.05095 h 40.280468 c 0.63673,-35.83279 15.24762,-68.28763 38.67195,-92.297589 z"
     id="path3885"
     inkscape:connector-curvature="0"
     style="fill:#f9a86d;stroke-width:0.33313614" />
  <path
     class="st1"
     d="M 361.28621,30.103521 C 351.76906,23.745022 341.58166,18.280686 330.99212,13.842984 320.23501,9.3390457 308.94174,5.8948591 297.4809,3.5766556 286.52274,1.3578048 275.29648,0.16558628 264.03671,0 v 39.806856 c 36.25913,0.629226 69.13361,15.06832 93.39573,38.217241 l 13.20345,-13.048185 15.28113,-15.101426 c -7.57354,-7.285785 -15.85085,-13.94234 -24.63081,-19.770965 z"
     id="path3887"
     inkscape:connector-curvature="0"
     style="opacity:0.6;fill:#43ada8;stroke-width:0.33313614;enable-background:new" />
  <path
     class="st2"
     d="m 436.21729,140.6818 c -2.34574,-11.32607 -5.8309,-22.45345 -10.38843,-33.11719 -4.45703,-10.431916 -9.98636,-20.532643 -16.42053,-29.937924 -5.93147,-8.643594 -12.66724,-16.82353 -20.03969,-24.341139 l -15.28115,15.10144 -13.20337,13.048174 c 23.42433,23.976839 38.03525,56.464799 38.67193,92.297589 h 40.28048 c -0.16756,-11.12737 -1.37399,-22.25474 -3.61924,-33.05095 z"
     id="path3889"
     inkscape:connector-curvature="0"
     style="fill:#ccb44d;stroke-width:0.33313614" />
  <path
     class="st3"
     d="m 225.7334,3.5766556 c -11.46084,2.3182035 -22.7206,5.7623901 -33.51122,10.2663284 -10.55603,4.404585 -20.74343,9.86892 -30.29414,16.260537 -8.74641,5.861741 -17.02369,12.518297 -24.63073,19.804077 l 15.2811,15.101433 13.20343,13.048176 C 190.04395,54.875176 222.91845,40.436082 259.17758,39.806856 V 0 C 247.95133,0.16558628 236.69157,1.3578048 225.7334,3.5766556 Z"
     id="path3891"
     inkscape:connector-curvature="0"
     style="fill:#ced3da;stroke-width:0.33313614" />
  <path
     class="st2"
     d="M 123.72527,178.50163 H 83.44479 c 0.167565,11.12738 1.373966,22.25474 3.619218,33.05094 2.345787,11.32608 5.830946,22.45345 10.388474,33.11719 4.456998,10.43192 9.986338,20.53265 16.453998,29.93794 5.93149,8.64359 12.66724,16.82353 20.03971,24.34112 l 15.28111,-15.10144 13.20342,-13.04816 c -23.49135,-24.00995 -38.10224,-56.4648 -38.70545,-92.29759 z"
     id="path3893"
     inkscape:connector-curvature="0"
     style="fill:#ccb44d;stroke-width:0.33313614" />
  <path
     class="st3"
     d="m 370.63589,287.22534 -13.20345,-13.04818 c -24.26212,23.18204 -57.1366,37.62115 -93.39573,38.21724 v 39.80686 c 11.25977,-0.16558 22.51954,-1.35781 33.44419,-3.57665 11.46084,-2.31822 22.75411,-5.76239 33.51122,-10.26634 10.55604,-4.40458 20.77694,-9.86891 30.29409,-16.26053 8.74646,-5.86174 17.02373,-12.51829 24.63081,-19.80408 z"
     id="path3895"
     inkscape:connector-curvature="0"
     style="fill:#ced3da;stroke-width:0.33313614" />
  <path
     class="st0"
     d="m 418.1883,178.50163 h -18.66575 c -0.63672,35.83279 -15.2476,68.28764 -38.67197,92.29759 l 13.20345,13.04816 15.28112,15.10144 c 7.37249,-7.51759 14.10821,-15.66442 20.03971,-24.34112 6.4341,-9.40529 11.96347,-19.47291 16.42044,-29.93794 4.55759,-10.63063 8.04274,-21.79111 10.38854,-33.11719 2.24524,-10.82932 3.4516,-21.92356 3.61915,-33.05094 z"
     id="path3897"
     inkscape:connector-curvature="0"
     style="fill:#f9a86d;stroke-width:0.33313614" />
  <path
     class="st1"
     d="m 165.81536,274.17716 -13.20343,13.04818 -15.2811,15.10144 c 7.60703,7.28578 15.8508,13.97545 24.63073,19.80407 9.51719,6.35851 19.70459,11.82284 30.29414,16.26056 10.7571,4.50392 22.05038,7.94811 33.51122,10.26631 10.95816,2.21886 22.18441,3.41107 33.44416,3.57666 v -39.80686 c -36.25912,-0.62921 -69.13362,-15.06832 -93.39572,-38.25036 z"
     id="path3899"
     inkscape:connector-curvature="0"
     style="opacity:0.6;fill:#43ada8;stroke-width:0.33313614;enable-background:new" />
  <path
     class="st2"
     d="m 455.72079,96.933998 c 6.73578,8.643592 17.12431,14.405992 29.02079,14.935852 21.34663,0.89417 39.40912,-15.46573 40.3475,-36.594491 0.90479,-21.095646 -15.64974,-38.945808 -37.02995,-39.873088 -21.34659,-0.894164 -39.40914,15.465726 -40.34747,36.594489 -0.20107,4.57017 0.43562,8.974762 1.74261,13.11441 l -24.59721,21.7911 z M 69.403602,255.49908 C 62.667845,246.8555 52.279369,241.09311 40.382892,240.56324 19.036247,239.66907 0.97370466,256.02896 0.03539059,277.15772 -0.86941442,298.25337 15.685127,316.10353 37.065277,317.03081 c 21.346641,0.89417 39.409193,-15.46573 40.347503,-36.59448 0.201068,-4.57018 -0.435642,-8.97477 -1.742587,-13.11442 l 24.597237,-21.7911 z"
     id="path3901"
     inkscape:connector-curvature="0"
     style="fill:#ccb44d;stroke-width:0.33313614" />
  <path
     class="st4"
     d="m 22.722481,302.82354 v -47.9868 h 16.152406 c 5.395307,0 9.584205,1.09288 12.600214,3.2786 3.016006,2.18574 4.524013,5.46433 4.524013,9.80269 0,2.18572 -0.636714,4.10653 -1.910139,5.82862 -1.273428,1.72209 -3.016011,2.98055 -5.261259,3.80848 2.881959,0.62922 5.127218,2.02014 6.668731,4.10653 1.541519,2.11949 2.345785,4.57016 2.345785,7.35202 0,4.50392 -1.4745,7.915 -4.456996,10.26632 -2.982495,2.35133 -7.10437,3.51042 -12.33212,3.51042 H 22.722481 Z m 8.109711,-27.78532 h 8.947496 c 2.51334,0 4.490506,-0.59611 5.964997,-1.75521 1.440979,-1.1591 2.178225,-2.84808 2.178225,-5.0007 0,-2.38442 -0.770756,-4.13964 -2.312271,-5.29874 -1.541518,-1.1591 -3.786765,-1.7221 -6.735752,-1.7221 h -8.042695 z m 0,5.96109 v 15.39949 h 10.187411 c 2.814943,0 4.959656,-0.62922 6.467663,-1.88768 1.508002,-1.25845 2.278763,-3.07989 2.278763,-5.46433 0,-2.55003 -0.636714,-4.50393 -1.910142,-5.92798 -1.273427,-1.39092 -3.250584,-2.1195 -5.931484,-2.1195 z M 470.73386,95.90737 V 47.920567 h 16.15241 c 5.39531,0 9.58419,1.092864 12.60025,3.278599 3.01595,2.185739 4.524,5.464334 4.524,9.802692 0,2.185726 -0.63668,4.106527 -1.91017,5.828624 -1.27341,1.722091 -3.01603,2.980549 -5.26126,3.808476 2.88196,0.629224 5.1272,2.020149 6.66876,4.106523 1.54152,2.119512 2.34574,4.570169 2.34574,7.352026 0,4.50393 -1.47445,7.915004 -4.45697,10.266322 -2.98249,2.351327 -7.10436,3.510413 -12.33212,3.510413 h -18.33064 z m 8.07617,-27.785317 h 8.94753 c 2.51335,0 4.49052,-0.596112 5.965,-1.755208 1.441,-1.159105 2.17823,-2.848083 2.17823,-5.0007 0,-2.384439 -0.77078,-4.139649 -2.31229,-5.298752 -1.54148,-1.159098 -3.78677,-1.722093 -6.73574,-1.722093 h -8.04273 z m 0,5.961092 v 15.399497 h 10.18746 c 2.81493,0 4.95967,-0.629235 6.46768,-1.887678 1.508,-1.258461 2.27874,-3.07991 2.27874,-5.464347 0,-2.550024 -0.63668,-4.503931 -1.91017,-5.92797 -1.27341,-1.390919 -3.25058,-2.119502 -5.93144,-2.119502 z"
     id="path3903"
     inkscape:connector-curvature="0"
     style="fill:#f7f7f8;stroke-width:0.33313614" />
  <path
     class="st5"
     d="m 289.57226,242.45091 h -61.05744 c 13.06938,0 13.06938,-21.45993 13.06938,-21.45993 h 34.91868 c 0,-0.0331 0,21.45993 13.06938,21.45993 z"
     id="path3905"
     inkscape:connector-curvature="0"
     style="fill:#929599;stroke-width:0.33313614" />
  <path
     class="st6"
     d="M 328.91442,104.65031 H 189.34023 c -4.82562,0 -8.67942,3.80847 -8.67942,8.57734 v 90.47616 h 156.89951 v -90.47616 c 0,-4.76887 -3.98785,-8.57734 -8.6459,-8.57734 z"
     id="path3907"
     inkscape:connector-curvature="0"
     style="fill:#363c41;stroke-width:0.33313614" />
  <path
     class="st7"
     d="m 189.54128,113.6913 h 139.44015 v 81.79944 H 189.54128 Z"
     id="path3909"
     inkscape:connector-curvature="0"
     style="fill:#ffdb6c;stroke-width:0.33313614" />
  <path
     class="st3"
     d="m 180.69432,212.24803 c 0,4.76888 3.85379,8.57737 8.67942,8.57737 h 139.44011 c 4.82564,0 8.67942,-3.80849 8.67942,-8.57737 v -8.54422 H 180.69432 Z m 47.95455,30.20288 h 61.05743 v 8.57735 h -61.05743 z"
     id="path3911"
     inkscape:connector-curvature="0"
     style="fill:#ced3da;stroke-width:0.33313614" />
  <path
     class="st6"
     d="m 259.04354,207.90969 c 2.4128,0 4.38996,1.95391 4.38996,4.33834 0,2.38444 -1.97716,4.33836 -4.38996,4.33836 -2.41281,0 -4.38997,-1.95392 -4.38997,-4.33836 0,-2.38443 1.97716,-4.33834 4.38997,-4.33834 z"
     id="path3913"
     inkscape:connector-curvature="0"
     style="fill:#363c41;stroke-width:0.33313614" />
  <path
     class="st8"
     d="m 275.397,190.72187 h -31.83564 v -5.46432 l 15.58272,-16.79043 c 2.54685,-2.74873 4.28942,-5.0007 5.26125,-6.78902 0.97183,-1.75521 1.441,-3.51042 1.441,-5.1994 0,-2.1195 -0.63673,-3.90783 -1.87664,-5.33187 -1.23991,-1.42404 -2.94899,-2.15262 -5.06019,-2.15262 -2.81495,0 -4.89264,0.79482 -6.2666,2.35133 -1.37395,1.5565 -2.04418,3.70913 -2.04418,6.42473 h -7.74109 l -0.0671,-0.19871 c -0.10054,-4.20588 1.27343,-7.74942 4.1889,-10.63061 2.88196,-2.8812 6.8698,-4.30524 11.89647,-4.30524 4.59104,0 8.24376,1.25846 10.92466,3.77537 2.6809,2.51691 4.02134,5.7955 4.02134,9.86891 0,2.71563 -0.77075,5.29875 -2.31227,7.78254 -1.54151,2.48379 -3.95433,5.46434 -7.2049,9.00788 l -10.65658,11.09425 0.10053,0.19871 h 21.58122 v 6.3585 z"
     id="path3915"
     inkscape:connector-curvature="0"
     style="fill:#ffffff;stroke-width:0.33313614" />
  <path
     class="st9"
     d="m 210.72038,112.13479 0.0334,-0.23182 -0.0334,-0.0331 z m -19.97269,21.42682 -0.10053,0.5961 c 0.0334,0.13248 0.0671,0.23184 0.0671,0.36429 l 0.10054,-0.36429 c -0.0335,-0.2318 -0.0335,-0.43052 -0.0671,-0.5961 z m 19.36948,-2.55002 0.60321,-18.8768 z m 58.80782,-18.15882 0.003,-0.19871 0.0671,8.7e-4 -0.003,0.1987 z m 38.87736,0.34177 -4.25592,-6.42473 z"
     id="path3917"
     inkscape:connector-curvature="0"
     style="fill:none;stroke-width:0.33313614" />
  <path
     class="st0"
     d="m 190.74769,133.56161 c -0.0335,-0.16559 -0.0335,-0.33118 -0.0335,-0.49676 l -0.0334,-0.69546 0.6367,-20.49954 -19.40299,-0.26494 -0.63672,20.49955 c -0.067,5.13316 4.08837,9.37215 9.28262,9.43839 h 0.90479 c 4.49051,0.0663 8.24377,-2.98056 9.28261,-7.08708 -0.0335,-0.13246 -0.067,-0.23182 -0.067,-0.3643 z"
     id="path3919"
     inkscape:connector-curvature="0"
     style="fill:#f9a86d;stroke-width:0.33313614" />
  <path
     class="st8"
     d="m 210.72038,112.13479 -19.40299,-0.26494 -0.63672,20.49954 c 0,0.23182 0,0.46364 0.0334,0.69546 l 0.0334,0.49676 0.0671,0.5961 -0.10054,0.36429 c 0.90481,4.13964 4.59104,7.28578 9.08155,7.35202 h 0.90479 c 4.95966,0.0663 9.2491,-3.67601 9.68474,-8.478 -0.20106,-0.76169 -0.26808,-1.5565 -0.26808,-2.35132 z m -20.03971,20.2346 c 0,0.23182 0,0.46364 0.0334,0.69546 -0.0334,-0.23182 -0.0334,-0.46364 -0.0334,-0.69546 z"
     id="path3921"
     inkscape:connector-curvature="0"
     style="fill:#ffffff;stroke-width:0.33313614" />
  <path
     class="st0"
     d="m 230.15688,112.39972 -19.40299,-0.26493 -0.6032,18.84366 c 0,0.82794 0.10053,1.58965 0.26808,2.35134 1.00533,4.00717 4.62454,7.02084 9.01452,7.08708 h 0.9048 c 4.59104,0.0663 8.47834,-3.14614 9.34962,-7.45136 -0.10053,-0.563 -0.16755,-1.15912 -0.13404,-1.75522 z"
     id="path3923"
     inkscape:connector-curvature="0"
     style="fill:#f9a86d;stroke-width:0.33313614" />
  <path
     class="st8"
     d="m 249.55987,112.66467 -19.40299,-0.26495 -0.60321,18.84368 c 0,0.59612 0.0335,1.19222 0.13404,1.75521 0.77078,4.30523 4.55752,7.61696 9.14858,7.68319 h 0.90479 c 4.45698,0.0663 8.24375,-2.94743 9.28261,-7.08708 -0.0335,-0.3974 -0.0671,-0.82793 -0.0671,-1.25846 z"
     id="path3925"
     inkscape:connector-curvature="0"
     style="fill:#ffffff;stroke-width:0.33313614" />
  <path
     class="st0"
     d="m 268.96286,112.9296 -19.40299,-0.26493 -0.6032,19.70472 c 0,0.43052 0.0334,0.86104 0.0671,1.25844 0.56969,4.57018 4.45698,8.11371 9.21559,8.17995 h 0.9048 c 4.59103,0.0663 8.47833,-3.14614 9.34961,-7.45136 -0.10052,-0.56299 -0.16754,-1.1591 -0.13403,-1.75521 z"
     id="path3927"
     inkscape:connector-curvature="0"
     style="fill:#f9a86d;stroke-width:0.33313614" />
  <path
     class="st8"
     d="m 288.39935,113.19454 -19.40297,-0.26494 -0.6032,19.70473 c 0,0.5961 0.0334,1.19222 0.13404,1.75522 0.77076,4.30522 4.55753,7.61695 9.14855,7.68318 h 0.9048 c 5.02669,0.0663 9.18209,-3.77537 9.51719,-8.64359 -0.20107,-0.7617 -0.3016,-1.58962 -0.3016,-2.41755 z"
     id="path3929"
     inkscape:connector-curvature="0"
     style="fill:#ffffff;stroke-width:0.33313614" />
  <path
     class="st0"
     d="m 307.80235,113.45948 -19.403,-0.26494 -0.60319,17.85016 c 0,0.82793 0.10053,1.65585 0.3016,2.41757 1.00533,3.97405 4.65806,6.9546 9.01452,7.02083 h 0.9048 c 4.45699,0.0663 8.24376,-2.94743 9.28261,-7.08708 -0.0671,-0.43051 -0.0671,-0.82792 -0.0671,-1.25845 z"
     id="path3931"
     inkscape:connector-curvature="0"
     style="fill:#f9a86d;stroke-width:0.33313614" />
  <path
     class="st8"
     d="m 327.23887,113.72441 -19.403,-0.26493 -0.60321,18.67809 c 0,0.43053 0.0335,0.86104 0.0671,1.25845 0.56969,4.57018 4.45698,8.11372 9.2156,8.17994 h 0.90476 c 4.59107,0.0663 8.47834,-3.14612 9.34965,-7.45136 -0.10051,-0.56299 -0.16755,-1.15909 -0.13405,-1.75521 z"
     id="path3933"
     inkscape:connector-curvature="0"
     style="fill:#ffffff;stroke-width:0.33313614" />
  <path
     class="st0"
     d="m 327.23887,113.72441 -0.60322,18.6781 c 0,0.5961 0.0334,1.19221 0.13405,1.7552 0.77075,4.30524 4.55755,7.61695 9.14859,7.68318 h 0.9048 c 5.1942,0.0663 9.48364,-4.04029 9.55064,-9.17345 l 0.60323,-18.67808 z"
     id="path3935"
     inkscape:connector-curvature="0"
     style="fill:#f9a86d;stroke-width:0.33313614" />
  <path
     class="st9"
     d="m 249.55987,112.36661 0.13405,-9.27282 -0.13405,9.30593 z m 51.54024,-9.27282 h -0.0334 l 2.47983,3.67602 z m 26.13876,10.33256 -10.89116,-10.33256 h -0.067 l 10.95817,10.43192 z m -19.43652,-0.23181 -4.25592,-6.42473 z m -38.87569,-0.34342 0.003,-0.19871 0.0671,8.6e-4 -0.003,0.19871 z m -52.40885,-9.75733 -5.79743,8.77606 5.83094,-8.77606 z"
     id="path3937"
     inkscape:connector-curvature="0"
     style="fill:none;stroke-width:0.33313614" />
  <path
     class="st10"
     d="M 200.06381,103.09379 H 185.9891 l -14.10822,8.2462 v 0.26492 l 19.43651,0.26494 v -0.26494 z"
     id="path3939"
     inkscape:connector-curvature="0"
     style="fill:#cf824d;stroke-width:0.33313614" />
  <path
     class="st11"
     d="m 200.06381,103.09379 -8.74642,8.51112 v 0.26494 l 19.40299,0.26494 v -0.26494 l 5.79743,-8.77606 z"
     id="path3941"
     inkscape:connector-curvature="0"
     style="fill:#e7dae2;stroke-width:0.33313614" />
  <path
     class="st10"
     d="m 233.54152,103.09379 h -16.9902 l -5.83094,8.77606 0.0334,0.0331 -0.0334,0.23184 19.4365,0.26493 v -0.29807 z"
     id="path3943"
     inkscape:connector-curvature="0"
     style="fill:#cf824d;stroke-width:0.33313614" />
  <path
     class="st11"
     d="m 249.69392,103.09379 h -16.1524 l -3.38464,9.00788 v 0.29805 l 19.40299,0.26495 v -0.26495 z"
     id="path3945"
     inkscape:connector-curvature="0"
     style="fill:#e7dae2;stroke-width:0.33313614" />
  <path
     class="st10"
     d="m 268.92936,112.86336 v -0.23181 l 0.13403,-9.53776 h -19.36947 l -0.13405,9.27282 v 0.29806 l 19.40299,0.26493 v -0.0663 z"
     id="path3947"
     inkscape:connector-curvature="0"
     style="fill:#cf824d;stroke-width:0.33313614" />
  <path
     class="st11"
     d="m 284.67962,103.09379 h -15.61623 l -0.13403,9.53776 h 0.0671 l -0.0334,0.23181 v 0.0663 l 19.43649,0.26493 v -0.26493 z"
     id="path3949"
     inkscape:connector-curvature="0"
     style="fill:#e7dae2;stroke-width:0.33313614" />
  <path
     class="st10"
     d="m 303.54643,106.76981 -2.47983,-3.67602 h -16.38698 l 3.71973,9.83581 v 0.26494 l 19.403,0.26494 v -0.26494 z"
     id="path3951"
     inkscape:connector-curvature="0"
     style="fill:#cf824d;stroke-width:0.33313614" />
  <path
     class="st11"
     d="m 316.2807,103.09379 h -15.18059 l 2.44632,3.67602 4.25592,6.42473 v 0.26494 l 19.43652,0.26493 v -0.1987 z"
     id="path3953"
     inkscape:connector-curvature="0"
     style="fill:#e7dae2;stroke-width:0.33313614" />
  <path
     class="st10"
     d="m 331.52827,103.09379 h -15.18056 l 10.89116,10.33256 v 0.29806 l 19.73809,0.26495 v -0.26495 z"
     id="path3955"
     inkscape:connector-curvature="0"
     style="fill:#cf824d;stroke-width:0.33313614" />
  <path
     class="st5"
     d="m 367.58635,206.55189 -76.94173,-20.56578 25.83711,74.3812 11.49435,-28.14961 23.5249,22.78463 6.50114,-6.49097 6.63527,-7.05396 -23.62545,-22.18852 z"
     id="path3957"
     inkscape:connector-curvature="0"
     style="fill:#929599;stroke-width:0.33313614" />
</svg>
