<?xml version="1.0" encoding="UTF-8" standalone="no"?>
<!-- Generator: Adobe Illustrator 18.0.0, SVG Export Plug-In . SVG Version: 6.00 Build 0)  -->

<svg
   xmlns:dc="http://purl.org/dc/elements/1.1/"
   xmlns:cc="http://creativecommons.org/ns#"
   xmlns:rdf="http://www.w3.org/1999/02/22-rdf-syntax-ns#"
   xmlns:svg="http://www.w3.org/2000/svg"
   xmlns="http://www.w3.org/2000/svg"
   xmlns:sodipodi="http://sodipodi.sourceforge.net/DTD/sodipodi-0.dtd"
   xmlns:inkscape="http://www.inkscape.org/namespaces/inkscape"
   version="1.1"
   id="Capa_1"
   x="0px"
   y="0px"
   viewBox="0 0 1018.547 771.481"
   xml:space="preserve"
   sodipodi:docname="people-trading.svg"
   width="1018.547"
   height="771.48102"
   inkscape:version="0.92.3 (2405546, 2018-03-11)"><metadata
   id="metadata4608"><rdf:RDF><cc:Work
       rdf:about=""><dc:format>image/svg+xml</dc:format><dc:type
         rdf:resource="http://purl.org/dc/dcmitype/StillImage" /><dc:title></dc:title></cc:Work></rdf:RDF></metadata><defs
   id="defs4606" /><sodipodi:namedview
   pagecolor="#ffffff"
   bordercolor="#666666"
   borderopacity="1"
   objecttolerance="10"
   gridtolerance="10"
   guidetolerance="10"
   inkscape:pageopacity="0"
   inkscape:pageshadow="2"
   inkscape:window-width="1600"
   inkscape:window-height="837"
   id="namedview4604"
   showgrid="false"
   fit-margin-right="300"
   fit-margin-top="50"
   fit-margin-left="0"
   fit-margin-bottom="0"
   inkscape:zoom="0.48159333"
   inkscape:cx="-81.064543"
   inkscape:cy="433.91133"
   inkscape:window-x="-8"
   inkscape:window-y="-8"
   inkscape:window-maximized="1"
   inkscape:current-layer="Capa_1" />
<g
   id="g4571"
   transform="matrix(1.5237708,0,0,1.472287,-14.080849,50)">
	<path
   d="m 96.701,148.775 c -2.826,-5.265 -6.854,-9.759 -11.663,-13.326 -5.681,-4.215 -12.458,-7.089 -20.002,-7.838 -0.064,-0.006 -0.122,-0.031 -0.187,-0.037 -1.885,-0.194 -3.715,-0.071 -5.553,-0.004 10.867,3.044 20.445,10.424 25.667,21.414 l 15.442,32.474 10.362,21.79 31.86,-3.004 6.982,-11.334 -14.651,3.842 z"
   id="path4553"
   inkscape:connector-curvature="0" />
	<path
   d="m 222.552,175.65 -24.998,-15.404 c -1.526,-0.94 -3.272,-1.43 -5.044,-1.43 -0.735,0 -1.477,0.087 -2.212,0.26 -2.474,0.593 -4.615,2.142 -5.95,4.307 l -22.897,37.169 c 16.68,3.655 29.927,17.637 31.622,35.573 0.184,1.945 0.054,3.836 -0.036,5.733 l 32.653,-53.002 c 2.781,-4.513 1.374,-10.425 -3.138,-13.206 z"
   id="path4555"
   inkscape:connector-curvature="0" />
	<path
   d="m 78.328,316.453 c 6.371,-6.415 10.739,-14.896 11.654,-24.602 l 0.51,-5.403 -0.305,0.028 c -1.28,0.127 -2.553,0.182 -3.817,0.182 -15.491,0 -29.78,-8.891 -36.529,-23.085 l -32.1,-67.494 -8.325,88.168 c -0.936,9.913 1.937,19.221 7.212,26.798 l 26.25,76.933 -9.5,69.92 c -2.11,15.506 8.749,29.779 24.247,31.881 1.296,0.182 2.584,0.261 3.857,0.261 13.949,0 26.096,-10.306 28.024,-24.508 l 10.401,-76.551 c 0.593,-4.363 0.166,-8.804 -1.256,-12.961 z"
   id="path4557"
   inkscape:connector-curvature="0" />
	<path
   d="M 99.016,117.447 C 125.776,110.476 141.82,83.123 134.848,56.362 127.879,29.602 100.534,13.558 73.773,20.53 47.013,27.5 30.969,54.854 37.939,81.614 c 6.971,26.759 34.318,42.802 61.077,35.833 z"
   id="path4559"
   inkscape:connector-curvature="0" />
	<path
   d="m 150.506,215.759 -49.49,4.671 -30.672,-64.49 C 64.582,143.824 50.072,138.679 37.996,144.44 25.88,150.194 20.735,164.68 26.497,176.788 l 37.967,79.83 c 4.046,8.52 12.621,13.854 21.916,13.854 0.759,0 1.525,-0.031 2.292,-0.11 l 66.403,-6.268 c 13.349,-1.256 23.148,-13.104 21.884,-26.452 -1.258,-13.356 -13.2,-23.282 -26.453,-21.883 z"
   id="path4561"
   inkscape:connector-curvature="0" />
	<path
   d="M 480.624,284.248 469.275,164.056 c -2.103,-22.255 -21.995,-38.75 -44.084,-36.481 -15.57,1.471 -28.083,11.66 -33.567,25.222 l 3.551,-3.243 c 16.502,-15.056 42.101,-13.918 57.164,2.584 15.071,16.502 13.918,42.093 -2.585,57.164 l -52.925,48.343 3.229,34.207 c 0.915,9.706 5.284,18.187 11.655,24.602 l -20.324,59.567 c -1.423,4.157 -1.85,8.599 -1.257,12.961 l 10.401,76.551 c 1.928,14.202 14.076,24.508 28.025,24.508 1.272,0 2.561,-0.079 3.856,-0.261 15.499,-2.102 26.357,-16.375 24.248,-31.881 l -9.5,-69.92 26.251,-76.933 c 5.275,-7.577 8.147,-16.885 7.211,-26.798 z"
   id="path4563"
   inkscape:connector-curvature="0" />
	<path
   d="m 391.025,117.447 c 26.76,6.97 54.106,-9.074 61.075,-35.834 6.972,-26.76 -9.072,-54.114 -35.831,-61.084 -26.763,-6.972 -54.106,9.072 -61.078,35.832 -6.969,26.762 9.073,54.115 35.834,61.086 z"
   id="path4565"
   inkscape:connector-curvature="0" />
	<path
   d="m 440.388,163.052 c -9.042,-9.887 -24.413,-10.598 -34.3,-1.549 l -51.829,47.341 h -65.55 c -13.412,0 -24.278,10.866 -24.278,24.278 0,13.412 10.867,24.279 24.278,24.279 h 74.97 c 6.062,0 11.902,-2.268 16.375,-6.354 l 58.784,-53.695 c 9.904,-9.041 10.592,-24.397 1.55,-34.3 z"
   id="path4567"
   inkscape:connector-curvature="0" />
	<path
   d="m 283.478,89.441 c 0,-15.223 -8.118,-24.509 -28.248,-31.612 -14.366,-5.415 -20.287,-8.964 -20.287,-14.544 0,-4.742 3.549,-9.467 14.551,-9.467 6.139,0 11.166,0.988 15.205,2.205 2.434,0.743 5.074,0.441 7.287,-0.807 2.213,-1.25 3.824,-3.35 4.458,-5.816 l 0.159,-0.608 c 1.303,-5.09 -1.732,-10.282 -6.807,-11.649 -4.25,-1.146 -9.349,-1.985 -15.577,-2.262 V 8.282 C 254.219,3.707 250.512,0 245.936,0 c -4.583,0 -8.29,3.707 -8.29,8.282 v 7.777 c -18.092,3.548 -28.57,15.221 -28.57,30.096 0,16.398 12.337,24.855 30.428,30.949 12.519,4.22 17.932,8.282 17.932,14.7 0,6.764 -6.598,10.496 -16.234,10.496 -6.843,0 -13.291,-1.383 -18.903,-3.359 -2.404,-0.854 -5.058,-0.641 -7.303,0.561 -2.253,1.201 -3.896,3.288 -4.529,5.753 l -0.157,0.625 c -1.392,5.437 1.722,11.009 7.082,12.685 5.697,1.778 12.494,3.035 19.409,3.342 v 7.786 c 0,4.576 3.706,8.283 8.282,8.283 4.584,0 8.291,-3.707 8.291,-8.283 v -8.97 c 19.442,-3.375 30.104,-16.234 30.104,-31.282 z"
   id="path4569"
   inkscape:connector-curvature="0" />
</g>
<g
   id="g4573"
   transform="matrix(1.5237708,0,0,1.472287,-14.080849,50)">
</g>
<g
   id="g4575"
   transform="matrix(1.5237708,0,0,1.472287,-14.080849,50)">
</g>
<g
   id="g4577"
   transform="matrix(1.5237708,0,0,1.472287,-14.080849,50)">
</g>
<g
   id="g4579"
   transform="matrix(1.5237708,0,0,1.472287,-14.080849,50)">
</g>
<g
   id="g4581"
   transform="matrix(1.5237708,0,0,1.472287,-14.080849,50)">
</g>
<g
   id="g4583"
   transform="matrix(1.5237708,0,0,1.472287,-14.080849,50)">
</g>
<g
   id="g4585"
   transform="matrix(1.5237708,0,0,1.472287,-14.080849,50)">
</g>
<g
   id="g4587"
   transform="matrix(1.5237708,0,0,1.472287,-14.080849,50)">
</g>
<g
   id="g4589"
   transform="matrix(1.5237708,0,0,1.472287,-14.080849,50)">
</g>
<g
   id="g4591"
   transform="matrix(1.5237708,0,0,1.472287,-14.080849,50)">
</g>
<g
   id="g4593"
   transform="matrix(1.5237708,0,0,1.472287,-14.080849,50)">
</g>
<g
   id="g4595"
   transform="matrix(1.5237708,0,0,1.472287,-14.080849,50)">
</g>
<g
   id="g4597"
   transform="matrix(1.5237708,0,0,1.472287,-14.080849,50)">
</g>
<g
   id="g4599"
   transform="matrix(1.5237708,0,0,1.472287,-14.080849,50)">
</g>
<g
   id="g4601"
   transform="matrix(1.5237708,0,0,1.472287,-14.080849,50)">
</g>
</svg>