<?xml version="1.0" encoding="iso-8859-1"?>
<!-- Generator: Adobe Illustrator 19.0.0, SVG Export Plug-In . SVG Version: 6.00 Build 0)  -->
<svg version="1.1" id="Capa_1" xmlns="http://www.w3.org/2000/svg" xmlns:xlink="http://www.w3.org/1999/xlink" x="0px" y="0px"
	 viewBox="0 0 512 512" style="enable-background:new 0 0 512 512;" xml:space="preserve">
<path style="fill:#34ABE0;" d="M512,256c0,8.056-0.376,16.029-1.108,23.897c-3.532,38.191-15.454,73.947-33.907,105.409
	c-15.245,25.986-34.931,49.047-58.023,68.137c-42.423,35.056-96.339,56.696-155.25,58.43c-2.56,0.084-5.13,0.125-7.711,0.125
	c-2.1,0-4.19-0.021-6.269-0.084c-7.398-0.167-14.712-0.658-21.943-1.463c-12.486-1.358-24.701-3.626-36.571-6.729
	c-6.374-1.651-12.643-3.553-18.808-5.684c-20.856-7.199-40.5-17.021-58.514-29.079c-32.204-21.525-59.235-50.155-78.879-83.654
	c-13.406-22.873-23.374-48.002-29.163-74.689C2.02,293.021,0.003,274.745,0.003,256c0-8.547,0.418-16.99,1.243-25.318
	c3.688-37.658,15.548-72.913,33.771-103.988c7.419-12.664,15.903-24.628,25.318-35.777C107.293,35.319,177.52,0.002,256.002,0.002
	s148.709,35.317,195.666,90.916c9.414,11.149,17.899,23.113,25.318,35.777c13.166,22.455,23.019,47.104,28.849,73.257
	c2.058,9.153,3.605,18.495,4.629,27.993c0.846,7.607,1.337,15.318,1.484,23.113C511.99,252.698,512,254.349,512,256z"/>
<g>
	<path style="fill:#78CAEF;" d="M504.63,226.597h-36.32c-3.678,0-7.011-1.494-9.414-3.897c-2.414-2.414-3.908-5.747-3.908-9.425
		c0-7.356,5.966-13.322,13.322-13.322h37.522c2.058,9.153,3.605,18.495,4.629,27.993C508.695,227.078,506.72,226.597,504.63,226.597
		z"/>
	<path style="fill:#78CAEF;" d="M511.997,256.001c0,8.056-0.376,16.029-1.108,23.897h-9.968c-3.678,0-7.011-1.494-9.425-3.908
		c-2.403-2.403-3.897-5.736-3.897-9.414c0-7.366,5.966-13.322,13.322-13.322h3.709c2.706,0,5.214-0.805,7.314-2.194
		C511.986,252.699,511.997,254.349,511.997,256.001z"/>
	<path style="fill:#78CAEF;" d="M102.943,297.295c0,7.356-5.966,13.322-13.322,13.322H5.851C2.017,293.022,0,274.746,0,256.001
		c0-8.547,0.418-16.99,1.243-25.318H68.89c3.688,0,7.011,1.494,9.425,3.908c2.414,2.403,3.908,5.736,3.908,9.414
		c0,7.356-5.966,13.322-13.333,13.322H25.966c-7.366,0-13.322,5.966-13.322,13.322c0,7.356,5.956,13.322,13.322,13.322H89.62
		c3.678,0,7.011,1.494,9.414,3.908C101.449,290.284,102.943,293.617,102.943,297.295z"/>
</g>
<path style="fill:#F4A14E;" d="M476.986,90.918v294.388c-11.41,19.456-25.307,37.271-41.273,52.997
	c-7.481,7.387-15.423,14.315-23.771,20.731c-43.175,33.217-97.248,52.966-155.94,52.966s-112.765-19.748-155.94-52.966
	c-8.349-6.416-16.29-13.343-23.771-20.731c-15.966-15.726-29.863-33.541-41.273-52.997V90.918H476.986z"/>
<path style="fill:#5C5E70;" d="M472.593,37.636H39.398c-4.517,0-8.603,2.681-10.401,6.824L6.874,95.447
	c-3.249,7.487,2.239,15.85,10.401,15.85h477.441c8.162,0,13.649-8.363,10.401-15.85l-22.124-50.987
	C481.196,40.318,477.109,37.636,472.593,37.636z"/>
<path style="fill:#494B5B;" d="M435.712,212.501v225.801c-7.481,7.387-15.423,14.315-23.771,20.731
	c-43.175,33.217-97.248,52.966-155.94,52.966s-112.765-19.748-155.94-52.966c-8.349-6.416-16.29-13.343-23.771-20.731V212.501
	c0-8.14,6.593-14.733,14.733-14.733H420.98C429.119,197.768,435.712,204.361,435.712,212.501z"/>
<g>
	<path style="fill:#C69A6A;" d="M418.963,420.33v33.113c-42.423,35.056-96.339,56.696-155.25,58.43
		c-2.56,0.084-5.13,0.125-7.711,0.125c-2.1,0-4.19-0.021-6.269-0.084c-7.398-0.167-14.712-0.658-21.943-1.463V420.33L418.963,420.33
		L418.963,420.33z"/>
	<rect x="317.647" y="306.435" style="fill:#C69A6A;" width="85.681" height="113.893"/>
</g>
<rect x="317.647" y="249.488" style="fill:#D3AA81;" width="76.277" height="56.947"/>
<path style="fill:#B58657;" d="M263.713,420.33v91.543c-2.56,0.084-5.13,0.125-7.711,0.125c-2.1,0-4.19-0.021-6.269-0.084
	c-7.398-0.167-14.712-0.658-21.943-1.463V420.33L263.713,420.33L263.713,420.33z"/>
<rect x="35.014" y="111.301" style="fill:#E28D40;" width="441.968" height="28.211"/>
<path style="fill:#797B89;" d="M461.309,75.245H351.601c-6.059,0-10.97-4.912-10.97-10.97l0,0c0-6.059,4.912-10.97,10.97-10.97
	h109.708c6.059,0,10.97,4.912,10.97,10.97l0,0C472.28,70.333,467.369,75.245,461.309,75.245z"/>
<path style="fill:#D3AA81;" d="M249.732,391.073v120.842c-7.398-0.167-14.712-0.658-21.943-1.463
	c-12.486-1.358-24.701-3.626-36.571-6.729c-6.374-1.651-12.643-3.553-18.808-5.684c-20.856-7.199-40.5-17.021-58.514-29.079v-77.886
	H249.732z"/>
<rect x="131.207" y="284.419" style="fill:#C69A6A;" width="101.208" height="106.652"/>
<g>
	<polygon style="fill:#B58657;" points="232.418,378.158 232.418,391.073 220.162,391.073 181.814,350.657 169.568,337.742 
		131.21,297.325 131.21,284.421 143.467,284.421 181.814,324.836 194.06,337.742 	"/>
	<polygon style="fill:#B58657;" points="232.418,284.421 232.418,297.325 194.06,337.742 181.814,350.657 143.467,391.073 
		131.21,391.073 131.21,378.158 169.568,337.742 181.814,324.836 220.162,284.421 	"/>
	<path style="fill:#B58657;" d="M191.218,391.073v112.65c-6.374-1.651-12.643-3.553-18.808-5.684V391.073H191.218z"/>
</g>
<g>
	<rect x="292.57" y="420.328" style="fill:#E8DBC4;" width="33.437" height="48.065"/>
	<rect x="167.757" y="284.419" style="fill:#E8DBC4;" width="28.116" height="40.416"/>
	<rect x="346.434" y="306.435" style="fill:#E8DBC4;" width="28.116" height="40.416"/>
</g>
<g>
</g>
<g>
</g>
<g>
</g>
<g>
</g>
<g>
</g>
<g>
</g>
<g>
</g>
<g>
</g>
<g>
</g>
<g>
</g>
<g>
</g>
<g>
</g>
<g>
</g>
<g>
</g>
<g>
</g>
</svg>
